<svg width="40" height="40" viewBox="0 0 40 40" fill="none" xmlns="http://www.w3.org/2000/svg">
<circle cx="20" cy="20" r="19.5" stroke="#D75F00"/>
<path d="M13 19.75C12.5858 19.75 12.25 20.0858 12.25 20.5C12.25 20.9142 12.5858 21.25 13 21.25L13 19.75ZM28.0303 21.0303C28.3232 20.7374 28.3232 20.2626 28.0303 19.9697L23.2574 15.1967C22.9645 14.9038 22.4896 14.9038 22.1967 15.1967C21.9038 15.4896 21.9038 15.9645 22.1967 16.2574L26.4393 20.5L22.1967 24.7426C21.9038 25.0355 21.9038 25.5104 22.1967 25.8033C22.4896 26.0962 22.9645 26.0962 23.2574 25.8033L28.0303 21.0303ZM13 21.25L20.25 21.25L20.25 19.75L13 19.75L13 21.25ZM20.25 21.25L27.5 21.25L27.5 19.75L20.25 19.75L20.25 21.25Z" fill="#D75F00"/>
</svg>
