<svg width="40" height="40" viewBox="0 0 40 40" fill="none" xmlns="http://www.w3.org/2000/svg">
<path fill-rule="evenodd" clip-rule="evenodd" d="M27.4443 12.5989C27.4443 12.0466 26.9966 11.5989 26.4443 11.5989C25.8921 11.5989 25.4443 12.0466 25.4443 12.5989L25.4443 24.9326L13.8176 13.3058C13.4271 12.9153 12.7939 12.9153 12.4034 13.3058C12.0129 13.6964 12.0129 14.3295 12.4034 14.72L23.6796 25.9963L12.5787 25.9962C12.0264 25.9962 11.5787 26.4439 11.5786 26.9962C11.5786 27.5485 12.0264 27.9962 12.5786 27.9962L26.4443 27.9963C26.7095 27.9963 26.9639 27.891 27.1514 27.7034C27.339 27.5159 27.4443 27.2616 27.4443 26.9963L27.4443 12.5989Z" fill="#3F3F3F"/>
</svg>
