<svg width="40" height="40" viewBox="0 0 40 40" fill="none" xmlns="http://www.w3.org/2000/svg">
<path fill-rule="evenodd" clip-rule="evenodd" d="M12.5986 12.5559C12.0463 12.5559 11.5986 13.0036 11.5986 13.5559C11.5986 14.1082 12.0463 14.5559 12.5986 14.5559L24.9323 14.5559L13.3056 26.1827C12.9151 26.5732 12.9151 27.2063 13.3056 27.5969C13.6961 27.9874 14.3293 27.9874 14.7198 27.5969L25.9961 16.3206L25.9959 27.4216C25.9959 27.9739 26.4437 28.4216 26.9959 28.4216C27.5482 28.4216 27.9959 27.9739 27.9959 27.4216L27.9961 13.5559C27.9961 13.2907 27.8907 13.0363 27.7032 12.8488C27.5157 12.6613 27.2613 12.5559 26.9961 12.5559L12.5986 12.5559Z" fill="#D75F00"/>
</svg>
