<svg width="40" height="40" viewBox="0 0 40 40" fill="none" xmlns="http://www.w3.org/2000/svg">
<circle cx="20" cy="20" r="19.5" transform="rotate(-180 20 20)" stroke="#858585"/>
<path d="M27 20.25C27.4142 20.25 27.75 19.9142 27.75 19.5C27.75 19.0858 27.4142 18.75 27 18.75L27 20.25ZM11.9697 18.9697C11.6768 19.2626 11.6768 19.7374 11.9697 20.0303L16.7426 24.8033C17.0355 25.0962 17.5104 25.0962 17.8033 24.8033C18.0962 24.5104 18.0962 24.0355 17.8033 23.7426L13.5607 19.5L17.8033 15.2574C18.0962 14.9645 18.0962 14.4896 17.8033 14.1967C17.5104 13.9038 17.0355 13.9038 16.7426 14.1967L11.9697 18.9697ZM27 18.75L19.75 18.75L19.75 20.25L27 20.25L27 18.75ZM19.75 18.75L12.5 18.75L12.5 20.25L19.75 20.25L19.75 18.75Z" fill="#858585"/>
</svg>
