<svg width="78" height="40" viewBox="0 0 78 40" fill="none" xmlns="http://www.w3.org/2000/svg">
<circle cx="20" cy="20" r="19.5" stroke="white"/>
<path d="M13 19.75C12.5858 19.75 12.25 20.0858 12.25 20.5C12.25 20.9142 12.5858 21.25 13 21.25L13 19.75ZM28.0303 21.0303C28.3232 20.7374 28.3232 20.2626 28.0303 19.9697L23.2574 15.1967C22.9645 14.9038 22.4896 14.9038 22.1967 15.1967C21.9038 15.4896 21.9038 15.9645 22.1967 16.2574L26.4393 20.5L22.1967 24.7426C21.9038 25.0355 21.9038 25.5104 22.1967 25.8033C22.4896 26.0962 22.9645 26.0962 23.2574 25.8033L28.0303 21.0303ZM13 21.25L20.25 21.25L20.25 19.75L13 19.75L13 21.25ZM20.25 21.25L27.5 21.25L27.5 19.75L20.25 19.75L20.25 21.25Z" fill="white"/>
<path d="M53.214 25L48.93 15.2H50.904L54.726 24.062H53.592L57.456 15.2H59.276L55.006 25H53.214ZM62.8156 25.098C61.9849 25.098 61.2569 24.9347 60.6316 24.608C60.0156 24.272 59.5349 23.8147 59.1896 23.236C58.8536 22.6573 58.6856 21.9993 58.6856 21.262C58.6856 20.5153 58.8489 19.8573 59.1756 19.288C59.5116 18.7093 59.9689 18.2567 60.5476 17.93C61.1356 17.6033 61.8029 17.44 62.5496 17.44C63.2776 17.44 63.9263 17.5987 64.4956 17.916C65.0649 18.2333 65.5129 18.6813 65.8396 19.26C66.1663 19.8387 66.3296 20.52 66.3296 21.304C66.3296 21.3787 66.3249 21.4627 66.3156 21.556C66.3156 21.6493 66.3109 21.738 66.3016 21.822H60.0716V20.66H65.3776L64.6916 21.024C64.7009 20.5947 64.6123 20.2167 64.4256 19.89C64.2389 19.5633 63.9823 19.3067 63.6556 19.12C63.3383 18.9333 62.9696 18.84 62.5496 18.84C62.1203 18.84 61.7423 18.9333 61.4156 19.12C61.0983 19.3067 60.8463 19.568 60.6596 19.904C60.4823 20.2307 60.3936 20.618 60.3936 21.066V21.346C60.3936 21.794 60.4963 22.1907 60.7016 22.536C60.9069 22.8813 61.1963 23.1473 61.5696 23.334C61.9429 23.5207 62.3723 23.614 62.8576 23.614C63.2776 23.614 63.6556 23.5487 63.9916 23.418C64.3276 23.2873 64.6263 23.082 64.8876 22.802L65.8256 23.88C65.4896 24.272 65.0649 24.5753 64.5516 24.79C64.0476 24.9953 63.4689 25.098 62.8156 25.098ZM66.9606 27.814C66.6339 27.814 66.3259 27.7767 66.0366 27.702C65.7379 27.6367 65.4859 27.5293 65.2806 27.38L65.7846 26.078C66.0552 26.274 66.3959 26.372 66.8066 26.372C67.1239 26.372 67.3712 26.2693 67.5486 26.064C67.7259 25.868 67.8146 25.574 67.8146 25.182V17.524H69.5646V25.14C69.5646 25.9613 69.3359 26.61 68.8786 27.086C68.4306 27.5713 67.7912 27.814 66.9606 27.814ZM68.6826 16.292C68.3559 16.292 68.0852 16.1893 67.8706 15.984C67.6652 15.7787 67.5626 15.5313 67.5626 15.242C67.5626 14.9433 67.6652 14.696 67.8706 14.5C68.0852 14.2947 68.3559 14.192 68.6826 14.192C69.0092 14.192 69.2752 14.29 69.4806 14.486C69.6952 14.6727 69.8026 14.9107 69.8026 15.2C69.8026 15.508 69.6999 15.7693 69.4946 15.984C69.2892 16.1893 69.0186 16.292 68.6826 16.292ZM76.1855 25V23.488L76.0875 23.166V20.52C76.0875 20.0067 75.9335 19.61 75.6255 19.33C75.3175 19.0407 74.8508 18.896 74.2255 18.896C73.8055 18.896 73.3902 18.9613 72.9795 19.092C72.5782 19.2227 72.2375 19.4047 71.9575 19.638L71.2715 18.364C71.6728 18.056 72.1488 17.8273 72.6995 17.678C73.2595 17.5193 73.8382 17.44 74.4355 17.44C75.5182 17.44 76.3535 17.7013 76.9415 18.224C77.5388 18.7373 77.8375 19.5353 77.8375 20.618V25H76.1855ZM73.8335 25.098C73.2735 25.098 72.7835 25.0047 72.3635 24.818C71.9435 24.622 71.6168 24.356 71.3835 24.02C71.1595 23.6747 71.0475 23.2873 71.0475 22.858C71.0475 22.438 71.1455 22.06 71.3415 21.724C71.5468 21.388 71.8782 21.122 72.3355 20.926C72.7928 20.73 73.3995 20.632 74.1555 20.632H76.3255V21.794H74.2815C73.6842 21.794 73.2828 21.892 73.0775 22.088C72.8722 22.2747 72.7695 22.508 72.7695 22.788C72.7695 23.1053 72.8955 23.3573 73.1475 23.544C73.3995 23.7307 73.7495 23.824 74.1975 23.824C74.6268 23.824 75.0095 23.726 75.3455 23.53C75.6908 23.334 75.9382 23.0447 76.0875 22.662L76.3815 23.712C76.2135 24.1507 75.9102 24.4913 75.4715 24.734C75.0422 24.9767 74.4962 25.098 73.8335 25.098Z" fill="white"/>
</svg>
