<svg width="40" height="40" viewBox="0 0 40 40" fill="none" xmlns="http://www.w3.org/2000/svg">
<path fill-rule="evenodd" clip-rule="evenodd" d="M12.5991 12.556C12.0468 12.556 11.5991 13.0037 11.5991 13.556C11.5991 14.1083 12.0468 14.556 12.5991 14.556L24.9328 14.556L13.3061 26.1827C12.9156 26.5732 12.9156 27.2064 13.3061 27.5969C13.6966 27.9875 14.3298 27.9875 14.7203 27.5969L25.9966 16.3207L25.9964 27.4216C25.9964 27.9739 26.4441 28.4216 26.9964 28.4217C27.5487 28.4217 27.9964 27.974 27.9964 27.4217L27.9966 13.556C27.9966 13.2908 27.8912 13.0364 27.7037 12.8489C27.5162 12.6613 27.2618 12.556 26.9966 12.556L12.5991 12.556Z" fill="white"/>
</svg>
