<svg width="217" height="40" viewBox="0 0 217 40" fill="none" xmlns="http://www.w3.org/2000/svg">
<circle cx="20" cy="20" r="19.5" stroke="white"/>
<path d="M13 19.75C12.5858 19.75 12.25 20.0858 12.25 20.5C12.25 20.9142 12.5858 21.25 13 21.25L13 19.75ZM28.0303 21.0303C28.3232 20.7374 28.3232 20.2626 28.0303 19.9697L23.2574 15.1967C22.9645 14.9038 22.4896 14.9038 22.1967 15.1967C21.9038 15.4896 21.9038 15.9645 22.1967 16.2574L26.4393 20.5L22.1967 24.7426C21.9038 25.0355 21.9038 25.5104 22.1967 25.8033C22.4896 26.0962 22.9645 26.0962 23.2574 25.8033L28.0303 21.0303ZM13 21.25L20.25 21.25L20.25 19.75L13 19.75L13 21.25ZM20.25 21.25L27.5 21.25L27.5 19.75L20.25 19.75L20.25 21.25Z" fill="white"/>
<path d="M54.852 25.14C54.1053 25.14 53.41 25.0187 52.766 24.776C52.1313 24.524 51.576 24.174 51.1 23.726C50.6333 23.2687 50.2693 22.732 50.008 22.116C49.7467 21.5 49.616 20.828 49.616 20.1C49.616 19.372 49.7467 18.7 50.008 18.084C50.2693 17.468 50.638 16.936 51.114 16.488C51.59 16.0307 52.1453 15.6807 52.78 15.438C53.4147 15.186 54.11 15.06 54.866 15.06C55.6687 15.06 56.4013 15.2 57.064 15.48C57.7267 15.7507 58.2867 16.1567 58.744 16.698L57.568 17.804C57.2133 17.4213 56.8167 17.1367 56.378 16.95C55.9393 16.754 55.4633 16.656 54.95 16.656C54.4367 16.656 53.9653 16.74 53.536 16.908C53.116 17.076 52.7473 17.314 52.43 17.622C52.122 17.93 51.8793 18.294 51.702 18.714C51.534 19.134 51.45 19.596 51.45 20.1C51.45 20.604 51.534 21.066 51.702 21.486C51.8793 21.906 52.122 22.27 52.43 22.578C52.7473 22.886 53.116 23.124 53.536 23.292C53.9653 23.46 54.4367 23.544 54.95 23.544C55.4633 23.544 55.9393 23.4507 56.378 23.264C56.8167 23.068 57.2133 22.774 57.568 22.382L58.744 23.502C58.2867 24.034 57.7267 24.44 57.064 24.72C56.4013 25 55.664 25.14 54.852 25.14ZM63.1128 25.098C62.3474 25.098 61.6661 24.9347 61.0688 24.608C60.4714 24.272 60.0001 23.8147 59.6548 23.236C59.3094 22.6573 59.1368 21.9993 59.1368 21.262C59.1368 20.5153 59.3094 19.8573 59.6548 19.288C60.0001 18.7093 60.4714 18.2567 61.0688 17.93C61.6661 17.6033 62.3474 17.44 63.1128 17.44C63.8874 17.44 64.5734 17.6033 65.1708 17.93C65.7774 18.2567 66.2488 18.7047 66.5848 19.274C66.9301 19.8433 67.1028 20.506 67.1028 21.262C67.1028 21.9993 66.9301 22.6573 66.5848 23.236C66.2488 23.8147 65.7774 24.272 65.1708 24.608C64.5734 24.9347 63.8874 25.098 63.1128 25.098ZM63.1128 23.6C63.5421 23.6 63.9248 23.5067 64.2608 23.32C64.5968 23.1333 64.8581 22.8627 65.0448 22.508C65.2408 22.1533 65.3388 21.738 65.3388 21.262C65.3388 20.7767 65.2408 20.3613 65.0448 20.016C64.8581 19.6613 64.5968 19.3907 64.2608 19.204C63.9248 19.0173 63.5468 18.924 63.1268 18.924C62.6974 18.924 62.3148 19.0173 61.9788 19.204C61.6521 19.3907 61.3908 19.6613 61.1948 20.016C60.9988 20.3613 60.9008 20.7767 60.9008 21.262C60.9008 21.738 60.9988 22.1533 61.1948 22.508C61.3908 22.8627 61.6521 23.1333 61.9788 23.32C62.3148 23.5067 62.6928 23.6 63.1128 23.6ZM72.7382 17.44C73.3355 17.44 73.8675 17.5567 74.3342 17.79C74.8102 18.0233 75.1835 18.3827 75.4542 18.868C75.7249 19.344 75.8602 19.96 75.8602 20.716V25H74.1102V20.94C74.1102 20.2773 73.9515 19.7827 73.6342 19.456C73.3262 19.1293 72.8922 18.966 72.3322 18.966C71.9215 18.966 71.5575 19.05 71.2402 19.218C70.9229 19.386 70.6755 19.638 70.4982 19.974C70.3302 20.3007 70.2462 20.716 70.2462 21.22V25H68.4962V17.524H70.1622V19.54L69.8682 18.924C70.1295 18.448 70.5075 18.084 71.0022 17.832C71.5062 17.5707 72.0849 17.44 72.7382 17.44ZM78.0382 25V17.104C78.0382 16.32 78.2669 15.6947 78.7242 15.228C79.1909 14.752 79.8535 14.514 80.7122 14.514C81.0202 14.514 81.3095 14.5467 81.5802 14.612C81.8602 14.6773 82.0935 14.78 82.2802 14.92L81.8042 16.236C81.6735 16.1333 81.5242 16.0587 81.3562 16.012C81.1882 15.956 81.0155 15.928 80.8382 15.928C80.4742 15.928 80.1989 16.0307 80.0122 16.236C79.8255 16.432 79.7322 16.7307 79.7322 17.132V17.972L79.7882 18.756V25H78.0382ZM76.8062 18.98V17.58H81.7902V18.98H76.8062ZM83.0222 25V17.524H84.7722V25H83.0222ZM83.9042 16.292C83.5775 16.292 83.3069 16.1893 83.0922 15.984C82.8869 15.7787 82.7842 15.5313 82.7842 15.242C82.7842 14.9433 82.8869 14.696 83.0922 14.5C83.3069 14.2947 83.5775 14.192 83.9042 14.192C84.2309 14.192 84.4969 14.29 84.7022 14.486C84.9169 14.6727 85.0242 14.9107 85.0242 15.2C85.0242 15.508 84.9215 15.7693 84.7162 15.984C84.5109 16.1893 84.2402 16.292 83.9042 16.292ZM86.7897 25V17.524H88.4557V19.582L88.2597 18.98C88.4837 18.476 88.8337 18.0933 89.3097 17.832C89.7951 17.5707 90.3971 17.44 91.1157 17.44V19.106C91.0411 19.0873 90.9711 19.078 90.9057 19.078C90.8404 19.0687 90.7751 19.064 90.7097 19.064C90.0471 19.064 89.5197 19.26 89.1277 19.652C88.7357 20.0347 88.5397 20.6087 88.5397 21.374V25H86.7897ZM96.3931 25V23.488L96.2951 23.166V20.52C96.2951 20.0067 96.1411 19.61 95.8331 19.33C95.5251 19.0407 95.0584 18.896 94.4331 18.896C94.0131 18.896 93.5977 18.9613 93.1871 19.092C92.7857 19.2227 92.4451 19.4047 92.1651 19.638L91.4791 18.364C91.8804 18.056 92.3564 17.8273 92.9071 17.678C93.4671 17.5193 94.0457 17.44 94.6431 17.44C95.7257 17.44 96.5611 17.7013 97.1491 18.224C97.7464 18.7373 98.0451 19.5353 98.0451 20.618V25H96.3931ZM94.0411 25.098C93.4811 25.098 92.9911 25.0047 92.5711 24.818C92.1511 24.622 91.8244 24.356 91.5911 24.02C91.3671 23.6747 91.2551 23.2873 91.2551 22.858C91.2551 22.438 91.3531 22.06 91.5491 21.724C91.7544 21.388 92.0857 21.122 92.5431 20.926C93.0004 20.73 93.6071 20.632 94.3631 20.632H96.5331V21.794H94.4891C93.8917 21.794 93.4904 21.892 93.2851 22.088C93.0797 22.2747 92.9771 22.508 92.9771 22.788C92.9771 23.1053 93.1031 23.3573 93.3551 23.544C93.6071 23.7307 93.9571 23.824 94.4051 23.824C94.8344 23.824 95.2171 23.726 95.5531 23.53C95.8984 23.334 96.1457 23.0447 96.2951 22.662L96.5891 23.712C96.4211 24.1507 96.1177 24.4913 95.6791 24.734C95.2497 24.9767 94.7037 25.098 94.0411 25.098ZM107.842 17.44C108.439 17.44 108.971 17.5567 109.438 17.79C109.914 18.0233 110.287 18.3827 110.558 18.868C110.829 19.344 110.964 19.96 110.964 20.716V25H109.214V20.94C109.214 20.2773 109.055 19.7827 108.738 19.456C108.43 19.1293 107.996 18.966 107.436 18.966C107.025 18.966 106.661 19.05 106.344 19.218C106.027 19.386 105.779 19.638 105.602 19.974C105.434 20.3007 105.35 20.716 105.35 21.22V25H103.6V17.524H105.266V19.54L104.972 18.924C105.233 18.448 105.611 18.084 106.106 17.832C106.61 17.5707 107.189 17.44 107.842 17.44ZM116.278 25.098C115.512 25.098 114.831 24.9347 114.234 24.608C113.636 24.272 113.165 23.8147 112.82 23.236C112.474 22.6573 112.302 21.9993 112.302 21.262C112.302 20.5153 112.474 19.8573 112.82 19.288C113.165 18.7093 113.636 18.2567 114.234 17.93C114.831 17.6033 115.512 17.44 116.278 17.44C117.052 17.44 117.738 17.6033 118.336 17.93C118.942 18.2567 119.414 18.7047 119.75 19.274C120.095 19.8433 120.268 20.506 120.268 21.262C120.268 21.9993 120.095 22.6573 119.75 23.236C119.414 23.8147 118.942 24.272 118.336 24.608C117.738 24.9347 117.052 25.098 116.278 25.098ZM116.278 23.6C116.707 23.6 117.09 23.5067 117.426 23.32C117.762 23.1333 118.023 22.8627 118.21 22.508C118.406 22.1533 118.504 21.738 118.504 21.262C118.504 20.7767 118.406 20.3613 118.21 20.016C118.023 19.6613 117.762 19.3907 117.426 19.204C117.09 19.0173 116.712 18.924 116.292 18.924C115.862 18.924 115.48 19.0173 115.144 19.204C114.817 19.3907 114.556 19.6613 114.36 20.016C114.164 20.3613 114.066 20.7767 114.066 21.262C114.066 21.738 114.164 22.1533 114.36 22.508C114.556 22.8627 114.817 23.1333 115.144 23.32C115.48 23.5067 115.858 23.6 116.278 23.6ZM123.971 25.098C123.346 25.098 122.744 25.0187 122.165 24.86C121.596 24.692 121.143 24.4913 120.807 24.258L121.479 22.928C121.815 23.1427 122.217 23.32 122.683 23.46C123.15 23.6 123.617 23.67 124.083 23.67C124.634 23.67 125.031 23.5953 125.273 23.446C125.525 23.2967 125.651 23.096 125.651 22.844C125.651 22.6387 125.567 22.4847 125.399 22.382C125.231 22.27 125.012 22.186 124.741 22.13C124.471 22.074 124.167 22.0227 123.831 21.976C123.505 21.9293 123.173 21.8687 122.837 21.794C122.511 21.71 122.212 21.5933 121.941 21.444C121.671 21.2853 121.451 21.0753 121.283 20.814C121.115 20.5527 121.031 20.2073 121.031 19.778C121.031 19.302 121.167 18.8913 121.437 18.546C121.708 18.1913 122.086 17.9207 122.571 17.734C123.066 17.538 123.649 17.44 124.321 17.44C124.825 17.44 125.334 17.496 125.847 17.608C126.361 17.72 126.785 17.8787 127.121 18.084L126.449 19.414C126.095 19.1993 125.735 19.0547 125.371 18.98C125.017 18.896 124.662 18.854 124.307 18.854C123.775 18.854 123.379 18.9333 123.117 19.092C122.865 19.2507 122.739 19.4513 122.739 19.694C122.739 19.918 122.823 20.086 122.991 20.198C123.159 20.31 123.379 20.3987 123.649 20.464C123.92 20.5293 124.219 20.5853 124.545 20.632C124.881 20.6693 125.213 20.73 125.539 20.814C125.866 20.898 126.165 21.0147 126.435 21.164C126.715 21.304 126.939 21.5047 127.107 21.766C127.275 22.0273 127.359 22.368 127.359 22.788C127.359 23.2547 127.219 23.6607 126.939 24.006C126.669 24.3513 126.281 24.622 125.777 24.818C125.273 25.0047 124.671 25.098 123.971 25.098ZM130.896 25.098C130.271 25.098 129.669 25.0187 129.09 24.86C128.521 24.692 128.068 24.4913 127.732 24.258L128.404 22.928C128.74 23.1427 129.142 23.32 129.608 23.46C130.075 23.6 130.542 23.67 131.008 23.67C131.559 23.67 131.956 23.5953 132.198 23.446C132.45 23.2967 132.576 23.096 132.576 22.844C132.576 22.6387 132.492 22.4847 132.324 22.382C132.156 22.27 131.937 22.186 131.666 22.13C131.396 22.074 131.092 22.0227 130.756 21.976C130.43 21.9293 130.098 21.8687 129.762 21.794C129.436 21.71 129.137 21.5933 128.866 21.444C128.596 21.2853 128.376 21.0753 128.208 20.814C128.04 20.5527 127.956 20.2073 127.956 19.778C127.956 19.302 128.092 18.8913 128.362 18.546C128.633 18.1913 129.011 17.9207 129.496 17.734C129.991 17.538 130.574 17.44 131.246 17.44C131.75 17.44 132.259 17.496 132.772 17.608C133.286 17.72 133.71 17.8787 134.046 18.084L133.374 19.414C133.02 19.1993 132.66 19.0547 132.296 18.98C131.942 18.896 131.587 18.854 131.232 18.854C130.7 18.854 130.304 18.9333 130.042 19.092C129.79 19.2507 129.664 19.4513 129.664 19.694C129.664 19.918 129.748 20.086 129.916 20.198C130.084 20.31 130.304 20.3987 130.574 20.464C130.845 20.5293 131.144 20.5853 131.47 20.632C131.806 20.6693 132.138 20.73 132.464 20.814C132.791 20.898 133.09 21.0147 133.36 21.164C133.64 21.304 133.864 21.5047 134.032 21.766C134.2 22.0273 134.284 22.368 134.284 22.788C134.284 23.2547 134.144 23.6607 133.864 24.006C133.594 24.3513 133.206 24.622 132.702 24.818C132.198 25.0047 131.596 25.098 130.896 25.098ZM138.871 25.098C138.106 25.098 137.425 24.9347 136.827 24.608C136.23 24.272 135.759 23.8147 135.413 23.236C135.068 22.6573 134.895 21.9993 134.895 21.262C134.895 20.5153 135.068 19.8573 135.413 19.288C135.759 18.7093 136.23 18.2567 136.827 17.93C137.425 17.6033 138.106 17.44 138.871 17.44C139.646 17.44 140.332 17.6033 140.929 17.93C141.536 18.2567 142.007 18.7047 142.343 19.274C142.689 19.8433 142.861 20.506 142.861 21.262C142.861 21.9993 142.689 22.6573 142.343 23.236C142.007 23.8147 141.536 24.272 140.929 24.608C140.332 24.9347 139.646 25.098 138.871 25.098ZM138.871 23.6C139.301 23.6 139.683 23.5067 140.019 23.32C140.355 23.1333 140.617 22.8627 140.803 22.508C140.999 22.1533 141.097 21.738 141.097 21.262C141.097 20.7767 140.999 20.3613 140.803 20.016C140.617 19.6613 140.355 19.3907 140.019 19.204C139.683 19.0173 139.305 18.924 138.885 18.924C138.456 18.924 138.073 19.0173 137.737 19.204C137.411 19.3907 137.149 19.6613 136.953 20.016C136.757 20.3613 136.659 20.7767 136.659 21.262C136.659 21.738 136.757 22.1533 136.953 22.508C137.149 22.8627 137.411 23.1333 137.737 23.32C138.073 23.5067 138.451 23.6 138.871 23.6ZM157.28 17.44C157.877 17.44 158.405 17.5567 158.862 17.79C159.329 18.0233 159.693 18.3827 159.954 18.868C160.215 19.344 160.346 19.96 160.346 20.716V25H158.596V20.94C158.596 20.2773 158.451 19.7827 158.162 19.456C157.873 19.1293 157.457 18.966 156.916 18.966C156.533 18.966 156.193 19.05 155.894 19.218C155.605 19.386 155.376 19.6333 155.208 19.96C155.049 20.2867 154.97 20.702 154.97 21.206V25H153.22V20.94C153.22 20.2773 153.075 19.7827 152.786 19.456C152.497 19.1293 152.081 18.966 151.54 18.966C151.157 18.966 150.817 19.05 150.518 19.218C150.229 19.386 150 19.6333 149.832 19.96C149.673 20.2867 149.594 20.702 149.594 21.206V25H147.844V17.524H149.51V19.512L149.216 18.924C149.468 18.4387 149.832 18.07 150.308 17.818C150.793 17.566 151.344 17.44 151.96 17.44C152.66 17.44 153.267 17.6127 153.78 17.958C154.303 18.3033 154.648 18.826 154.816 19.526L154.13 19.288C154.373 18.728 154.774 18.28 155.334 17.944C155.894 17.608 156.543 17.44 157.28 17.44ZM166.908 25V23.488L166.81 23.166V20.52C166.81 20.0067 166.656 19.61 166.348 19.33C166.04 19.0407 165.574 18.896 164.948 18.896C164.528 18.896 164.113 18.9613 163.702 19.092C163.301 19.2227 162.96 19.4047 162.68 19.638L161.994 18.364C162.396 18.056 162.872 17.8273 163.422 17.678C163.982 17.5193 164.561 17.44 165.158 17.44C166.241 17.44 167.076 17.7013 167.664 18.224C168.262 18.7373 168.56 19.5353 168.56 20.618V25H166.908ZM164.556 25.098C163.996 25.098 163.506 25.0047 163.086 24.818C162.666 24.622 162.34 24.356 162.106 24.02C161.882 23.6747 161.77 23.2873 161.77 22.858C161.77 22.438 161.868 22.06 162.064 21.724C162.27 21.388 162.601 21.122 163.058 20.926C163.516 20.73 164.122 20.632 164.878 20.632H167.048V21.794H165.004C164.407 21.794 164.006 21.892 163.8 22.088C163.595 22.2747 163.492 22.508 163.492 22.788C163.492 23.1053 163.618 23.3573 163.87 23.544C164.122 23.7307 164.472 23.824 164.92 23.824C165.35 23.824 165.732 23.726 166.068 23.53C166.414 23.334 166.661 23.0447 166.81 22.662L167.104 23.712C166.936 24.1507 166.633 24.4913 166.194 24.734C165.765 24.9767 165.219 25.098 164.556 25.098ZM174.768 17.44C175.365 17.44 175.897 17.5567 176.364 17.79C176.84 18.0233 177.213 18.3827 177.484 18.868C177.755 19.344 177.89 19.96 177.89 20.716V25H176.14V20.94C176.14 20.2773 175.981 19.7827 175.664 19.456C175.356 19.1293 174.922 18.966 174.362 18.966C173.951 18.966 173.587 19.05 173.27 19.218C172.953 19.386 172.705 19.638 172.528 19.974C172.36 20.3007 172.276 20.716 172.276 21.22V25H170.526V17.524H172.192V19.54L171.898 18.924C172.159 18.448 172.537 18.084 173.032 17.832C173.536 17.5707 174.115 17.44 174.768 17.44ZM179.83 25V17.524H181.58V25H179.83ZM180.712 16.292C180.385 16.292 180.115 16.1893 179.9 15.984C179.695 15.7787 179.592 15.5313 179.592 15.242C179.592 14.9433 179.695 14.696 179.9 14.5C180.115 14.2947 180.385 14.192 180.712 14.192C181.039 14.192 181.305 14.29 181.51 14.486C181.725 14.6727 181.832 14.9107 181.832 15.2C181.832 15.508 181.729 15.7693 181.524 15.984C181.319 16.1893 181.048 16.292 180.712 16.292ZM183.835 25V17.104C183.835 16.32 184.064 15.6947 184.521 15.228C184.988 14.752 185.65 14.514 186.509 14.514C186.817 14.514 187.106 14.5467 187.377 14.612C187.657 14.6773 187.89 14.78 188.077 14.92L187.601 16.236C187.47 16.1333 187.321 16.0587 187.153 16.012C186.985 15.956 186.812 15.928 186.635 15.928C186.271 15.928 185.996 16.0307 185.809 16.236C185.622 16.432 185.529 16.7307 185.529 17.132V17.972L185.585 18.756V25H183.835ZM182.603 18.98V17.58H187.587V18.98H182.603ZM191.89 25.098C191.059 25.098 190.331 24.9347 189.706 24.608C189.09 24.272 188.609 23.8147 188.264 23.236C187.928 22.6573 187.76 21.9993 187.76 21.262C187.76 20.5153 187.923 19.8573 188.25 19.288C188.586 18.7093 189.043 18.2567 189.622 17.93C190.21 17.6033 190.877 17.44 191.624 17.44C192.352 17.44 193 17.5987 193.57 17.916C194.139 18.2333 194.587 18.6813 194.914 19.26C195.24 19.8387 195.404 20.52 195.404 21.304C195.404 21.3787 195.399 21.4627 195.39 21.556C195.39 21.6493 195.385 21.738 195.376 21.822H189.146V20.66H194.452L193.766 21.024C193.775 20.5947 193.686 20.2167 193.5 19.89C193.313 19.5633 193.056 19.3067 192.73 19.12C192.412 18.9333 192.044 18.84 191.624 18.84C191.194 18.84 190.816 18.9333 190.49 19.12C190.172 19.3067 189.92 19.568 189.734 19.904C189.556 20.2307 189.468 20.618 189.468 21.066V21.346C189.468 21.794 189.57 22.1907 189.776 22.536C189.981 22.8813 190.27 23.1473 190.644 23.334C191.017 23.5207 191.446 23.614 191.932 23.614C192.352 23.614 192.73 23.5487 193.066 23.418C193.402 23.2873 193.7 23.082 193.962 22.802L194.9 23.88C194.564 24.272 194.139 24.5753 193.626 24.79C193.122 24.9953 192.543 25.098 191.89 25.098ZM199.115 25.098C198.489 25.098 197.887 25.0187 197.309 24.86C196.739 24.692 196.287 24.4913 195.951 24.258L196.623 22.928C196.959 23.1427 197.36 23.32 197.827 23.46C198.293 23.6 198.76 23.67 199.227 23.67C199.777 23.67 200.174 23.5953 200.417 23.446C200.669 23.2967 200.795 23.096 200.795 22.844C200.795 22.6387 200.711 22.4847 200.543 22.382C200.375 22.27 200.155 22.186 199.885 22.13C199.614 22.074 199.311 22.0227 198.975 21.976C198.648 21.9293 198.317 21.8687 197.981 21.794C197.654 21.71 197.355 21.5933 197.085 21.444C196.814 21.2853 196.595 21.0753 196.427 20.814C196.259 20.5527 196.175 20.2073 196.175 19.778C196.175 19.302 196.31 18.8913 196.581 18.546C196.851 18.1913 197.229 17.9207 197.715 17.734C198.209 17.538 198.793 17.44 199.465 17.44C199.969 17.44 200.477 17.496 200.991 17.608C201.504 17.72 201.929 17.8787 202.265 18.084L201.593 19.414C201.238 19.1993 200.879 19.0547 200.515 18.98C200.16 18.896 199.805 18.854 199.451 18.854C198.919 18.854 198.522 18.9333 198.261 19.092C198.009 19.2507 197.883 19.4513 197.883 19.694C197.883 19.918 197.967 20.086 198.135 20.198C198.303 20.31 198.522 20.3987 198.793 20.464C199.063 20.5293 199.362 20.5853 199.689 20.632C200.025 20.6693 200.356 20.73 200.683 20.814C201.009 20.898 201.308 21.0147 201.579 21.164C201.859 21.304 202.083 21.5047 202.251 21.766C202.419 22.0273 202.503 22.368 202.503 22.788C202.503 23.2547 202.363 23.6607 202.083 24.006C201.812 24.3513 201.425 24.622 200.921 24.818C200.417 25.0047 199.815 25.098 199.115 25.098ZM206.544 25.098C205.722 25.098 205.088 24.888 204.64 24.468C204.192 24.0387 203.968 23.4087 203.968 22.578V15.872H205.718V22.536C205.718 22.8907 205.806 23.166 205.984 23.362C206.17 23.558 206.427 23.656 206.754 23.656C207.146 23.656 207.472 23.5533 207.734 23.348L208.224 24.594C208.018 24.762 207.766 24.888 207.468 24.972C207.169 25.056 206.861 25.098 206.544 25.098ZM202.736 18.98V17.58H207.72V18.98H202.736ZM212.497 25.098C211.732 25.098 211.05 24.9347 210.453 24.608C209.856 24.272 209.384 23.8147 209.039 23.236C208.694 22.6573 208.521 21.9993 208.521 21.262C208.521 20.5153 208.694 19.8573 209.039 19.288C209.384 18.7093 209.856 18.2567 210.453 17.93C211.05 17.6033 211.732 17.44 212.497 17.44C213.272 17.44 213.958 17.6033 214.555 17.93C215.162 18.2567 215.633 18.7047 215.969 19.274C216.314 19.8433 216.487 20.506 216.487 21.262C216.487 21.9993 216.314 22.6573 215.969 23.236C215.633 23.8147 215.162 24.272 214.555 24.608C213.958 24.9347 213.272 25.098 212.497 25.098ZM212.497 23.6C212.926 23.6 213.309 23.5067 213.645 23.32C213.981 23.1333 214.242 22.8627 214.429 22.508C214.625 22.1533 214.723 21.738 214.723 21.262C214.723 20.7767 214.625 20.3613 214.429 20.016C214.242 19.6613 213.981 19.3907 213.645 19.204C213.309 19.0173 212.931 18.924 212.511 18.924C212.082 18.924 211.699 19.0173 211.363 19.204C211.036 19.3907 210.775 19.6613 210.579 20.016C210.383 20.3613 210.285 20.7767 210.285 21.262C210.285 21.738 210.383 22.1533 210.579 22.508C210.775 22.8627 211.036 23.1333 211.363 23.32C211.699 23.5067 212.077 23.6 212.497 23.6Z" fill="white"/>
</svg>
