<svg width="124" height="40" viewBox="0 0 124 40" fill="none" xmlns="http://www.w3.org/2000/svg">
<circle cx="20" cy="20" r="19.5" stroke="white"/>
<path d="M13 19.75C12.5858 19.75 12.25 20.0858 12.25 20.5C12.25 20.9142 12.5858 21.25 13 21.25L13 19.75ZM28.0303 21.0303C28.3232 20.7374 28.3232 20.2626 28.0303 19.9697L23.2574 15.1967C22.9645 14.9038 22.4896 14.9038 22.1967 15.1967C21.9038 15.4896 21.9038 15.9645 22.1967 16.2574L26.4393 20.5L22.1967 24.7426C21.9038 25.0355 21.9038 25.5104 22.1967 25.8033C22.4896 26.0962 22.9645 26.0962 23.2574 25.8033L28.0303 21.0303ZM13 21.25L20.25 21.25L20.25 19.75L13 19.75L13 21.25ZM20.25 21.25L27.5 21.25L27.5 19.75L20.25 19.75L20.25 21.25Z" fill="white"/>
<path d="M53.354 25.14C52.598 25.14 51.8653 25.0327 51.156 24.818C50.456 24.6033 49.9007 24.3187 49.49 23.964L50.12 22.55C50.5213 22.8673 51.0113 23.1287 51.59 23.334C52.178 23.53 52.766 23.628 53.354 23.628C54.082 23.628 54.6233 23.5113 54.978 23.278C55.342 23.0447 55.524 22.7367 55.524 22.354C55.524 22.074 55.4213 21.8453 55.216 21.668C55.02 21.4813 54.768 21.3367 54.46 21.234C54.152 21.1313 53.732 21.0147 53.2 20.884C52.4533 20.7067 51.8467 20.5293 51.38 20.352C50.9227 20.1747 50.526 19.8993 50.19 19.526C49.8633 19.1433 49.7 18.63 49.7 17.986C49.7 17.4447 49.8447 16.9547 50.134 16.516C50.4327 16.068 50.876 15.7133 51.464 15.452C52.0613 15.1907 52.7893 15.06 53.648 15.06C54.2453 15.06 54.8333 15.1347 55.412 15.284C55.9907 15.4333 56.49 15.648 56.91 15.928L56.336 17.342C55.9067 17.09 55.4587 16.8987 54.992 16.768C54.5253 16.6373 54.0727 16.572 53.634 16.572C52.9153 16.572 52.3787 16.6933 52.024 16.936C51.6787 17.1787 51.506 17.5007 51.506 17.902C51.506 18.182 51.604 18.4107 51.8 18.588C52.0053 18.7653 52.262 18.9053 52.57 19.008C52.878 19.1107 53.298 19.2273 53.83 19.358C54.558 19.526 55.1553 19.7033 55.622 19.89C56.0887 20.0673 56.4853 20.3427 56.812 20.716C57.148 21.0893 57.316 21.5933 57.316 22.228C57.316 22.7693 57.1667 23.2593 56.868 23.698C56.5787 24.1367 56.1353 24.4867 55.538 24.748C54.9407 25.0093 54.2127 25.14 53.354 25.14ZM61.5287 17.44C62.63 17.44 63.47 17.706 64.0487 18.238C64.6367 18.7607 64.9307 19.554 64.9307 20.618V25H63.2787V24.09C63.064 24.4167 62.756 24.6687 62.3547 24.846C61.9627 25.014 61.4867 25.098 60.9267 25.098C60.3667 25.098 59.8767 25.0047 59.4567 24.818C59.0367 24.622 58.71 24.356 58.4767 24.02C58.2527 23.6747 58.1407 23.2873 58.1407 22.858C58.1407 22.186 58.388 21.6493 58.8827 21.248C59.3867 20.8373 60.1754 20.632 61.2487 20.632H63.1807V20.52C63.1807 19.9973 63.022 19.596 62.7047 19.316C62.3967 19.036 61.9347 18.896 61.3187 18.896C60.8987 18.896 60.4834 18.9613 60.0727 19.092C59.6714 19.2227 59.3307 19.4047 59.0507 19.638L58.3647 18.364C58.7567 18.0653 59.228 17.8367 59.7787 17.678C60.3294 17.5193 60.9127 17.44 61.5287 17.44ZM61.2907 23.824C61.7294 23.824 62.1167 23.726 62.4527 23.53C62.798 23.3247 63.0407 23.0353 63.1807 22.662V21.794H61.3747C60.3667 21.794 59.8627 22.1253 59.8627 22.788C59.8627 23.1053 59.9887 23.3573 60.2407 23.544C60.4927 23.7307 60.8427 23.824 61.2907 23.824ZM66.8966 17.524H68.6466V25H66.8966V17.524ZM67.7786 16.292C67.4613 16.292 67.1953 16.194 66.9806 15.998C66.7659 15.7927 66.6586 15.5407 66.6586 15.242C66.6586 14.9433 66.7659 14.696 66.9806 14.5C67.1953 14.2947 67.4613 14.192 67.7786 14.192C68.0959 14.192 68.3619 14.29 68.5766 14.486C68.7913 14.6727 68.8986 14.9107 68.8986 15.2C68.8986 15.508 68.7913 15.7693 68.5766 15.984C68.3713 16.1893 68.1053 16.292 67.7786 16.292ZM74.8075 17.44C75.5355 17.44 76.1841 17.5987 76.7535 17.916C77.3321 18.2333 77.7848 18.6813 78.1115 19.26C78.4381 19.8387 78.6015 20.506 78.6015 21.262C78.6015 22.018 78.4381 22.69 78.1115 23.278C77.7848 23.8567 77.3321 24.3047 76.7535 24.622C76.1841 24.9393 75.5355 25.098 74.8075 25.098C74.2941 25.098 73.8228 25.0093 73.3935 24.832C72.9735 24.6547 72.6188 24.3887 72.3295 24.034V25H70.6635V14.612H72.4135V18.434C72.7121 18.1073 73.0621 17.86 73.4635 17.692C73.8741 17.524 74.3221 17.44 74.8075 17.44ZM74.6115 23.6C75.2555 23.6 75.7828 23.3853 76.1935 22.956C76.6135 22.5267 76.8235 21.962 76.8235 21.262C76.8235 20.562 76.6135 19.9973 76.1935 19.568C75.7828 19.1387 75.2555 18.924 74.6115 18.924C74.1915 18.924 73.8135 19.022 73.4775 19.218C73.1415 19.4047 72.8755 19.6753 72.6795 20.03C72.4835 20.3847 72.3855 20.7953 72.3855 21.262C72.3855 21.7287 72.4835 22.1393 72.6795 22.494C72.8755 22.8487 73.1415 23.124 73.4775 23.32C73.8135 23.5067 74.1915 23.6 74.6115 23.6ZM82.7414 17.44C83.8428 17.44 84.6828 17.706 85.2614 18.238C85.8494 18.7607 86.1434 19.554 86.1434 20.618V25H84.4914V24.09C84.2768 24.4167 83.9688 24.6687 83.5674 24.846C83.1754 25.014 82.6994 25.098 82.1394 25.098C81.5794 25.098 81.0894 25.0047 80.6694 24.818C80.2494 24.622 79.9228 24.356 79.6894 24.02C79.4654 23.6747 79.3534 23.2873 79.3534 22.858C79.3534 22.186 79.6008 21.6493 80.0954 21.248C80.5994 20.8373 81.3881 20.632 82.4614 20.632H84.3934V20.52C84.3934 19.9973 84.2348 19.596 83.9174 19.316C83.6094 19.036 83.1474 18.896 82.5314 18.896C82.1114 18.896 81.6961 18.9613 81.2854 19.092C80.8841 19.2227 80.5434 19.4047 80.2634 19.638L79.5774 18.364C79.9694 18.0653 80.4408 17.8367 80.9914 17.678C81.5421 17.5193 82.1254 17.44 82.7414 17.44ZM82.5034 23.824C82.9421 23.824 83.3294 23.726 83.6654 23.53C84.0108 23.3247 84.2534 23.0353 84.3934 22.662V21.794H82.5874C81.5794 21.794 81.0754 22.1253 81.0754 22.788C81.0754 23.1053 81.2014 23.3573 81.4534 23.544C81.7054 23.7307 82.0554 23.824 82.5034 23.824ZM101.134 17.44C102.077 17.44 102.824 17.7153 103.374 18.266C103.925 18.8073 104.2 19.624 104.2 20.716V25H102.45V20.94C102.45 20.2867 102.306 19.7967 102.016 19.47C101.727 19.134 101.312 18.966 100.77 18.966C100.182 18.966 99.7111 19.162 99.3565 19.554C99.0018 19.9367 98.8245 20.4873 98.8245 21.206V25H97.0745V20.94C97.0745 20.2867 96.9298 19.7967 96.6405 19.47C96.3511 19.134 95.9358 18.966 95.3945 18.966C94.7971 18.966 94.3211 19.1573 93.9665 19.54C93.6211 19.9227 93.4485 20.478 93.4485 21.206V25H91.6985V17.524H93.3645V18.476C93.6445 18.14 93.9945 17.8833 94.4145 17.706C94.8345 17.5287 95.3011 17.44 95.8145 17.44C96.3745 17.44 96.8691 17.5473 97.2985 17.762C97.7371 17.9673 98.0825 18.2753 98.3345 18.686C98.6425 18.294 99.0391 17.9907 99.5245 17.776C100.01 17.552 100.546 17.44 101.134 17.44ZM109.013 17.44C110.114 17.44 110.954 17.706 111.533 18.238C112.121 18.7607 112.415 19.554 112.415 20.618V25H110.763V24.09C110.548 24.4167 110.24 24.6687 109.839 24.846C109.447 25.014 108.971 25.098 108.411 25.098C107.851 25.098 107.361 25.0047 106.941 24.818C106.521 24.622 106.194 24.356 105.961 24.02C105.737 23.6747 105.625 23.2873 105.625 22.858C105.625 22.186 105.872 21.6493 106.367 21.248C106.871 20.8373 107.659 20.632 108.733 20.632H110.665V20.52C110.665 19.9973 110.506 19.596 110.189 19.316C109.881 19.036 109.419 18.896 108.803 18.896C108.383 18.896 107.967 18.9613 107.557 19.092C107.155 19.2227 106.815 19.4047 106.535 19.638L105.849 18.364C106.241 18.0653 106.712 17.8367 107.263 17.678C107.813 17.5193 108.397 17.44 109.013 17.44ZM108.775 23.824C109.213 23.824 109.601 23.726 109.937 23.53C110.282 23.3247 110.525 23.0353 110.665 22.662V21.794H108.859C107.851 21.794 107.347 22.1253 107.347 22.788C107.347 23.1053 107.473 23.3573 107.725 23.544C107.977 23.7307 108.327 23.824 108.775 23.824ZM114.381 17.524H116.131V25H114.381V17.524ZM115.263 16.292C114.945 16.292 114.679 16.194 114.465 15.998C114.25 15.7927 114.143 15.5407 114.143 15.242C114.143 14.9433 114.25 14.696 114.465 14.5C114.679 14.2947 114.945 14.192 115.263 14.192C115.58 14.192 115.846 14.29 116.061 14.486C116.275 14.6727 116.383 14.9107 116.383 15.2C116.383 15.508 116.275 15.7693 116.061 15.984C115.855 16.1893 115.589 16.292 115.263 16.292ZM120.458 25.098C119.851 25.098 119.258 25.0187 118.68 24.86C118.101 24.7013 117.639 24.5007 117.294 24.258L117.966 22.928C118.302 23.152 118.703 23.334 119.17 23.474C119.646 23.6047 120.112 23.67 120.57 23.67C121.615 23.67 122.138 23.3947 122.138 22.844C122.138 22.5827 122.002 22.4007 121.732 22.298C121.47 22.1953 121.046 22.0973 120.458 22.004C119.842 21.9107 119.338 21.8033 118.946 21.682C118.563 21.5607 118.227 21.3507 117.938 21.052C117.658 20.744 117.518 20.3193 117.518 19.778C117.518 19.0687 117.812 18.504 118.4 18.084C118.997 17.6547 119.8 17.44 120.808 17.44C121.321 17.44 121.834 17.5007 122.348 17.622C122.861 17.734 123.281 17.888 123.608 18.084L122.936 19.414C122.301 19.0407 121.587 18.854 120.794 18.854C120.28 18.854 119.888 18.9333 119.618 19.092C119.356 19.2413 119.226 19.442 119.226 19.694C119.226 19.974 119.366 20.1747 119.646 20.296C119.935 20.408 120.378 20.5153 120.976 20.618C121.573 20.7113 122.063 20.8187 122.446 20.94C122.828 21.0613 123.155 21.2667 123.426 21.556C123.706 21.8453 123.846 22.256 123.846 22.788C123.846 23.488 123.542 24.048 122.936 24.468C122.329 24.888 121.503 25.098 120.458 25.098Z" fill="white"/>
</svg>
