<svg width="124" height="40" viewBox="0 0 124 40" fill="none" xmlns="http://www.w3.org/2000/svg">
<circle cx="20" cy="20" r="19.5" stroke="white"/>
<path d="M13 19.75C12.5858 19.75 12.25 20.0858 12.25 20.5C12.25 20.9142 12.5858 21.25 13 21.25L13 19.75ZM28.0303 21.0303C28.3232 20.7374 28.3232 20.2626 28.0303 19.9697L23.2574 15.1967C22.9645 14.9038 22.4896 14.9038 22.1967 15.1967C21.9038 15.4896 21.9038 15.9645 22.1967 16.2574L26.4393 20.5L22.1967 24.7426C21.9038 25.0355 21.9038 25.5104 22.1967 25.8033C22.4896 26.0962 22.9645 26.0962 23.2574 25.8033L28.0303 21.0303ZM13 21.25L20.25 21.25L20.25 19.75L13 19.75L13 21.25ZM20.25 21.25L27.5 21.25L27.5 19.75L20.25 19.75L20.25 21.25Z" fill="white"/>
<path d="M53.354 25.14C52.5887 25.14 51.856 25.0327 51.156 24.818C50.456 24.594 49.9007 24.3093 49.49 23.964L50.12 22.55C50.512 22.858 50.9973 23.1147 51.576 23.32C52.1547 23.5253 52.7473 23.628 53.354 23.628C53.8673 23.628 54.2827 23.572 54.6 23.46C54.9173 23.348 55.1507 23.1987 55.3 23.012C55.4493 22.816 55.524 22.5967 55.524 22.354C55.524 22.0553 55.4167 21.8173 55.202 21.64C54.9873 21.4533 54.7073 21.3087 54.362 21.206C54.026 21.094 53.648 20.9913 53.228 20.898C52.8173 20.8047 52.402 20.6973 51.982 20.576C51.5713 20.4453 51.1933 20.282 50.848 20.086C50.512 19.8807 50.2367 19.61 50.022 19.274C49.8073 18.938 49.7 18.5087 49.7 17.986C49.7 17.454 49.84 16.9687 50.12 16.53C50.4093 16.082 50.8433 15.7273 51.422 15.466C52.01 15.1953 52.752 15.06 53.648 15.06C54.236 15.06 54.8193 15.1347 55.398 15.284C55.9767 15.4333 56.4807 15.648 56.91 15.928L56.336 17.342C55.8973 17.0807 55.4447 16.8893 54.978 16.768C54.5113 16.6373 54.0633 16.572 53.634 16.572C53.13 16.572 52.7193 16.6327 52.402 16.754C52.094 16.8753 51.8653 17.034 51.716 17.23C51.576 17.426 51.506 17.65 51.506 17.902C51.506 18.2007 51.6087 18.4433 51.814 18.63C52.0287 18.8073 52.304 18.9473 52.64 19.05C52.9853 19.1527 53.368 19.2553 53.788 19.358C54.208 19.4513 54.6233 19.5587 55.034 19.68C55.454 19.8013 55.832 19.96 56.168 20.156C56.5133 20.352 56.7887 20.618 56.994 20.954C57.2087 21.29 57.316 21.7147 57.316 22.228C57.316 22.7507 57.1713 23.236 56.882 23.684C56.602 24.1227 56.168 24.4773 55.58 24.748C54.992 25.0093 54.25 25.14 53.354 25.14ZM63.2787 25V23.488L63.1807 23.166V20.52C63.1807 20.0067 63.0267 19.61 62.7187 19.33C62.4107 19.0407 61.944 18.896 61.3187 18.896C60.8987 18.896 60.4834 18.9613 60.0727 19.092C59.6714 19.2227 59.3307 19.4047 59.0507 19.638L58.3647 18.364C58.766 18.056 59.242 17.8273 59.7927 17.678C60.3527 17.5193 60.9314 17.44 61.5287 17.44C62.6114 17.44 63.4467 17.7013 64.0347 18.224C64.632 18.7373 64.9307 19.5353 64.9307 20.618V25H63.2787ZM60.9267 25.098C60.3667 25.098 59.8767 25.0047 59.4567 24.818C59.0367 24.622 58.71 24.356 58.4767 24.02C58.2527 23.6747 58.1407 23.2873 58.1407 22.858C58.1407 22.438 58.2387 22.06 58.4347 21.724C58.64 21.388 58.9714 21.122 59.4287 20.926C59.886 20.73 60.4927 20.632 61.2487 20.632H63.4187V21.794H61.3747C60.7774 21.794 60.376 21.892 60.1707 22.088C59.9654 22.2747 59.8627 22.508 59.8627 22.788C59.8627 23.1053 59.9887 23.3573 60.2407 23.544C60.4927 23.7307 60.8427 23.824 61.2907 23.824C61.72 23.824 62.1027 23.726 62.4387 23.53C62.784 23.334 63.0314 23.0447 63.1807 22.662L63.4747 23.712C63.3067 24.1507 63.0034 24.4913 62.5647 24.734C62.1354 24.9767 61.5894 25.098 60.9267 25.098ZM66.8966 25V17.524H68.6466V25H66.8966ZM67.7786 16.292C67.4519 16.292 67.1813 16.1893 66.9666 15.984C66.7613 15.7787 66.6586 15.5313 66.6586 15.242C66.6586 14.9433 66.7613 14.696 66.9666 14.5C67.1813 14.2947 67.4519 14.192 67.7786 14.192C68.1053 14.192 68.3713 14.29 68.5766 14.486C68.7913 14.6727 68.8986 14.9107 68.8986 15.2C68.8986 15.508 68.7959 15.7693 68.5906 15.984C68.3853 16.1893 68.1146 16.292 67.7786 16.292ZM74.8075 25.098C74.1728 25.098 73.6081 24.958 73.1135 24.678C72.6188 24.398 72.2268 23.978 71.9375 23.418C71.6575 22.8487 71.5175 22.13 71.5175 21.262C71.5175 20.3847 71.6621 19.666 71.9515 19.106C72.2501 18.546 72.6468 18.1307 73.1415 17.86C73.6455 17.58 74.2008 17.44 74.8075 17.44C75.5448 17.44 76.1935 17.5987 76.7535 17.916C77.3228 18.2333 77.7708 18.6767 78.0975 19.246C78.4335 19.8153 78.6015 20.4873 78.6015 21.262C78.6015 22.0367 78.4335 22.7087 78.0975 23.278C77.7708 23.8473 77.3228 24.2953 76.7535 24.622C76.1935 24.9393 75.5448 25.098 74.8075 25.098ZM70.6635 25V14.612H72.4135V19.26L72.2735 21.248L72.3295 23.236V25H70.6635ZM74.6115 23.6C75.0315 23.6 75.4048 23.5067 75.7315 23.32C76.0675 23.1333 76.3335 22.8627 76.5295 22.508C76.7255 22.1533 76.8235 21.738 76.8235 21.262C76.8235 20.7767 76.7255 20.3613 76.5295 20.016C76.3335 19.6613 76.0675 19.3907 75.7315 19.204C75.4048 19.0173 75.0315 18.924 74.6115 18.924C74.1915 18.924 73.8135 19.0173 73.4775 19.204C73.1415 19.3907 72.8755 19.6613 72.6795 20.016C72.4835 20.3613 72.3855 20.7767 72.3855 21.262C72.3855 21.738 72.4835 22.1533 72.6795 22.508C72.8755 22.8627 73.1415 23.1333 73.4775 23.32C73.8135 23.5067 74.1915 23.6 74.6115 23.6ZM84.4914 25V23.488L84.3934 23.166V20.52C84.3934 20.0067 84.2394 19.61 83.9314 19.33C83.6234 19.0407 83.1568 18.896 82.5314 18.896C82.1114 18.896 81.6961 18.9613 81.2854 19.092C80.8841 19.2227 80.5434 19.4047 80.2634 19.638L79.5774 18.364C79.9788 18.056 80.4548 17.8273 81.0054 17.678C81.5654 17.5193 82.1441 17.44 82.7414 17.44C83.8241 17.44 84.6594 17.7013 85.2474 18.224C85.8448 18.7373 86.1434 19.5353 86.1434 20.618V25H84.4914ZM82.1394 25.098C81.5794 25.098 81.0894 25.0047 80.6694 24.818C80.2494 24.622 79.9228 24.356 79.6894 24.02C79.4654 23.6747 79.3534 23.2873 79.3534 22.858C79.3534 22.438 79.4514 22.06 79.6474 21.724C79.8528 21.388 80.1841 21.122 80.6414 20.926C81.0988 20.73 81.7054 20.632 82.4614 20.632H84.6314V21.794H82.5874C81.9901 21.794 81.5888 21.892 81.3834 22.088C81.1781 22.2747 81.0754 22.508 81.0754 22.788C81.0754 23.1053 81.2014 23.3573 81.4534 23.544C81.7054 23.7307 82.0554 23.824 82.5034 23.824C82.9328 23.824 83.3154 23.726 83.6514 23.53C83.9968 23.334 84.2441 23.0447 84.3934 22.662L84.6874 23.712C84.5194 24.1507 84.2161 24.4913 83.7774 24.734C83.3481 24.9767 82.8021 25.098 82.1394 25.098ZM101.134 17.44C101.732 17.44 102.259 17.5567 102.716 17.79C103.183 18.0233 103.547 18.3827 103.808 18.868C104.07 19.344 104.2 19.96 104.2 20.716V25H102.45V20.94C102.45 20.2773 102.306 19.7827 102.016 19.456C101.727 19.1293 101.312 18.966 100.77 18.966C100.388 18.966 100.047 19.05 99.7485 19.218C99.4591 19.386 99.2305 19.6333 99.0625 19.96C98.9038 20.2867 98.8245 20.702 98.8245 21.206V25H97.0745V20.94C97.0745 20.2773 96.9298 19.7827 96.6405 19.456C96.3511 19.1293 95.9358 18.966 95.3945 18.966C95.0118 18.966 94.6711 19.05 94.3725 19.218C94.0831 19.386 93.8545 19.6333 93.6865 19.96C93.5278 20.2867 93.4485 20.702 93.4485 21.206V25H91.6985V17.524H93.3645V19.512L93.0705 18.924C93.3225 18.4387 93.6865 18.07 94.1625 17.818C94.6478 17.566 95.1985 17.44 95.8145 17.44C96.5145 17.44 97.1211 17.6127 97.6345 17.958C98.1571 18.3033 98.5025 18.826 98.6705 19.526L97.9845 19.288C98.2271 18.728 98.6285 18.28 99.1885 17.944C99.7485 17.608 100.397 17.44 101.134 17.44ZM110.763 25V23.488L110.665 23.166V20.52C110.665 20.0067 110.511 19.61 110.203 19.33C109.895 19.0407 109.428 18.896 108.803 18.896C108.383 18.896 107.967 18.9613 107.557 19.092C107.155 19.2227 106.815 19.4047 106.535 19.638L105.849 18.364C106.25 18.056 106.726 17.8273 107.277 17.678C107.837 17.5193 108.415 17.44 109.013 17.44C110.095 17.44 110.931 17.7013 111.519 18.224C112.116 18.7373 112.415 19.5353 112.415 20.618V25H110.763ZM108.411 25.098C107.851 25.098 107.361 25.0047 106.941 24.818C106.521 24.622 106.194 24.356 105.961 24.02C105.737 23.6747 105.625 23.2873 105.625 22.858C105.625 22.438 105.723 22.06 105.919 21.724C106.124 21.388 106.455 21.122 106.913 20.926C107.37 20.73 107.977 20.632 108.733 20.632H110.903V21.794H108.859C108.261 21.794 107.86 21.892 107.655 22.088C107.449 22.2747 107.347 22.508 107.347 22.788C107.347 23.1053 107.473 23.3573 107.725 23.544C107.977 23.7307 108.327 23.824 108.775 23.824C109.204 23.824 109.587 23.726 109.923 23.53C110.268 23.334 110.515 23.0447 110.665 22.662L110.959 23.712C110.791 24.1507 110.487 24.4913 110.049 24.734C109.619 24.9767 109.073 25.098 108.411 25.098ZM114.381 25V17.524H116.131V25H114.381ZM115.263 16.292C114.936 16.292 114.665 16.1893 114.451 15.984C114.245 15.7787 114.143 15.5313 114.143 15.242C114.143 14.9433 114.245 14.696 114.451 14.5C114.665 14.2947 114.936 14.192 115.263 14.192C115.589 14.192 115.855 14.29 116.061 14.486C116.275 14.6727 116.383 14.9107 116.383 15.2C116.383 15.508 116.28 15.7693 116.075 15.984C115.869 16.1893 115.599 16.292 115.263 16.292ZM120.458 25.098C119.832 25.098 119.23 25.0187 118.652 24.86C118.082 24.692 117.63 24.4913 117.294 24.258L117.966 22.928C118.302 23.1427 118.703 23.32 119.17 23.46C119.636 23.6 120.103 23.67 120.57 23.67C121.12 23.67 121.517 23.5953 121.76 23.446C122.012 23.2967 122.138 23.096 122.138 22.844C122.138 22.6387 122.054 22.4847 121.886 22.382C121.718 22.27 121.498 22.186 121.228 22.13C120.957 22.074 120.654 22.0227 120.318 21.976C119.991 21.9293 119.66 21.8687 119.324 21.794C118.997 21.71 118.698 21.5933 118.428 21.444C118.157 21.2853 117.938 21.0753 117.77 20.814C117.602 20.5527 117.518 20.2073 117.518 19.778C117.518 19.302 117.653 18.8913 117.924 18.546C118.194 18.1913 118.572 17.9207 119.058 17.734C119.552 17.538 120.136 17.44 120.808 17.44C121.312 17.44 121.82 17.496 122.334 17.608C122.847 17.72 123.272 17.8787 123.608 18.084L122.936 19.414C122.581 19.1993 122.222 19.0547 121.858 18.98C121.503 18.896 121.148 18.854 120.794 18.854C120.262 18.854 119.865 18.9333 119.604 19.092C119.352 19.2507 119.226 19.4513 119.226 19.694C119.226 19.918 119.31 20.086 119.478 20.198C119.646 20.31 119.865 20.3987 120.136 20.464C120.406 20.5293 120.705 20.5853 121.032 20.632C121.368 20.6693 121.699 20.73 122.026 20.814C122.352 20.898 122.651 21.0147 122.922 21.164C123.202 21.304 123.426 21.5047 123.594 21.766C123.762 22.0273 123.846 22.368 123.846 22.788C123.846 23.2547 123.706 23.6607 123.426 24.006C123.155 24.3513 122.768 24.622 122.264 24.818C121.76 25.0047 121.158 25.098 120.458 25.098Z" fill="white"/>
</svg>
