<svg width="44" height="44" viewBox="0 0 44 44" fill="none" xmlns="http://www.w3.org/2000/svg">
<path d="M28.5632 22C28.5632 25.63 25.6299 28.5633 21.9999 28.5633C18.3699 28.5633 15.4365 25.63 15.4365 22C15.4365 18.37 18.3699 15.4366 21.9999 15.4366C25.6299 15.4366 28.5632 18.37 28.5632 22Z" stroke="#D75F00" stroke-width="1.5" stroke-linecap="round" stroke-linejoin="round"/>
<path d="M21.9997 37.1616C28.4714 37.1616 34.503 33.3483 38.7014 26.7483C40.3514 24.1633 40.3514 19.8183 38.7014 17.2333C34.503 10.6333 28.4714 6.81995 21.9997 6.81995C15.528 6.81995 9.49638 10.6333 5.29805 17.2333C3.64805 19.8183 3.64805 24.1633 5.29805 26.7483C9.49638 33.3483 15.528 37.1616 21.9997 37.1616Z" stroke="#D75F00" stroke-width="1.5" stroke-linecap="round" stroke-linejoin="round"/>
</svg>
