<svg width="19" height="14" viewBox="0 0 19 14" fill="none" xmlns="http://www.w3.org/2000/svg">
<path d="M18.8107 2.8834C18.8107 2.8834 18.6252 1.57344 18.0537 0.998242C17.3301 0.241211 16.5211 0.2375 16.15 0.192969C13.493 -1.06171e-07 9.50371 0 9.50371 0H9.49629C9.49629 0 5.50703 -1.06171e-07 2.85 0.192969C2.47891 0.2375 1.66992 0.241211 0.946289 0.998242C0.374805 1.57344 0.192969 2.8834 0.192969 2.8834C0.192969 2.8834 0 4.42344 0 5.95977V7.39961C0 8.93594 0.189258 10.476 0.189258 10.476C0.189258 10.476 0.374805 11.7859 0.942578 12.3611C1.66621 13.1182 2.61621 13.0922 3.03926 13.1738C4.56074 13.3186 9.5 13.3631 9.5 13.3631C9.5 13.3631 13.493 13.3557 16.15 13.1664C16.5211 13.1219 17.3301 13.1182 18.0537 12.3611C18.6252 11.7859 18.8107 10.476 18.8107 10.476C18.8107 10.476 19 8.93965 19 7.39961V5.95977C19 4.42344 18.8107 2.8834 18.8107 2.8834ZM7.53691 9.14746V3.80742L12.6691 6.48672L7.53691 9.14746Z" fill="#3F3F3F"/>
</svg>
