<svg width="25" height="25" viewBox="0 0 25 25" fill="none" xmlns="http://www.w3.org/2000/svg">
<path d="M12.5 2.5C18.0228 2.5 22.5 6.97715 22.5 12.5C22.5 18.0228 18.0228 22.5 12.5 22.5C10.7364 22.5 9.07709 22.0427 7.63692 21.2397L7.33171 21.0624L4.29975 21.9542C3.56936 22.1691 2.88822 21.5329 3.01987 20.8093L3.04581 20.7002L3.93756 17.6683C3.02505 16.1594 2.5 14.3896 2.5 12.5C2.5 6.97715 6.97715 2.5 12.5 2.5ZM12.5 4.5C8.08172 4.5 4.5 8.08172 4.5 12.5C4.5 14.0769 4.9552 15.5444 5.74098 16.7818C5.93935 17.0943 6.02374 17.4781 5.95652 17.8589L5.91832 18.0217L5.47667 19.5233L6.97827 19.0817C7.41075 18.9545 7.86114 19.0323 8.21817 19.259C9.45564 20.0448 10.9231 20.5 12.5 20.5C16.9183 20.5 20.5 16.9183 20.5 12.5C20.5 8.08172 16.9183 4.5 12.5 4.5ZM9.60162 7.68408C9.81746 7.59158 10.0789 7.6085 10.2856 7.75926C10.79 8.12722 11.1905 8.62076 11.5344 9.10344L11.8612 9.57746C11.9132 9.65417 11.9639 9.72933 12.0138 9.80228C12.1963 10.0692 12.1753 10.4239 11.9685 10.666L11.8927 10.7422L10.9693 11.428C10.8778 11.496 10.8473 11.6195 10.9022 11.7195C11.1112 12.0998 11.4834 12.6657 11.9093 13.0916C12.3357 13.518 12.9284 13.9143 13.3348 14.1467C13.4226 14.1969 13.5294 14.1811 13.601 14.1157L13.6394 14.0706L14.2402 13.1555C14.4705 12.849 14.9007 12.782 15.2134 12.9984L15.7563 13.3768C16.2957 13.7618 16.815 14.1757 17.2255 14.7014C17.3872 14.9085 17.4112 15.1792 17.3148 15.4042C16.9188 16.3283 15.9165 17.1153 14.874 17.0769L14.7155 17.0678L14.5235 17.0488C14.4889 17.0446 14.453 17.0399 14.4158 17.0346L14.1781 16.9952C13.2544 16.8208 11.7726 16.297 10.2383 14.7627C8.70397 13.2284 8.18017 11.7466 8.00573 10.8229L7.96632 10.5852L7.94126 10.3774L7.92756 10.2019C7.92606 10.1755 7.92491 10.1505 7.92404 10.127C7.88562 9.08294 8.67688 8.0804 9.60162 7.68408Z" fill="#D75F00"/>
</svg>
